#!OML:ASF E:\emotionWalksFemale\Project 1\Capture day 1\Session 1\Female1.ASF
:FULLY-SPECIFIED
:DEGREES
2854
root 10.6146 15.2507 -4.58092 -344.597 -21.7737 -10.2408
lowerback 21.6213 3.11175 1.89112
upperback -1.61007 4.54337 -0.513003
thorax -13.8192 1.89631 -3.15025
lowerneck -9.85548 3.03272 -0.880851
upperneck -2.45294 4.09675 3.57027
head 0.792387 2.11631 1.40917
rclavicle 6.36111e-014 -3.18055e-014
rhumerus -50.7527 13.1175 -99.7711
rradius 50.9649
rwrist 1.35346
rhand 5.24993 -62.5099
rfingers 7.12502
rthumb -149.392 1530.01
lclavicle 6.36111e-014 -3.18055e-014
lhumerus -38.1102 16.2868 59.0402
lradius 39.4598
lwrist -8.29383
lhand -12.2512 -34.959
lfingers 7.12502
lthumb 13.8149 -5.43769
rfemur -10.8732 8.54321 23.1701
rtibia 43.0957
rfoot -8.33566 -5.89236
rtoes -27.3901
lfemur -43.2182 -2.76906 -7.83118
ltibia 42.5815
lfoot -13.4626 9.73334
ltoes -24.3634
2855
root 10.6267 15.2926 -4.48228 -344.42 -21.6792 -10.3618
lowerback 21.7122 3.04404 1.74698
upperback -1.56476 4.4048 -0.587653
thorax -13.8312 1.83946 -3.11252
lowerneck -9.05252 3.22879 -0.841342
upperneck -3.29199 4.38286 3.94336
head 0.37745 2.24946 1.49536
rclavicle 5.1684e-015 8.74653e-015
rhumerus -50.619 13.1314 -99.8566
rradius 51.1273
rwrist 1.67042
rhand 5.69179 -62.9088
rfingers 7.12502
rthumb -148.97 1350.3
lclavicle 5.1684e-015 8.74653e-015
lhumerus -36.8009 15.952 59.457
lradius 40.1234
lwrist -7.4905
lhand -13.045 -35.8824
lfingers 7.12502
lthumb 13.0498 -6.31067
rfemur -11.3969 8.35571 23.1344
rtibia 44.0427
rfoot -7.70596 -5.95041
rtoes -27.1674
lfemur -42.8284 -3.00094 -7.83273
ltibia 42.2985
lfoot -13.7505 9.92758
ltoes -25.6968
2856
root 10.6347 15.3429 -4.38554 -344.147 -21.6938 -10.5535
lowerback 21.64 3.03548 1.44676
upperback -1.65754 4.32035 -0.558928
thorax -13.9284 1.8221 -2.8826
lowerneck -9.36088 3.07673 -0.325631
upperneck -2.55881 4.10311 3.72107
head 0.681344 2.11257 1.3483
rclavicle 2.8625e-014 3.02153e-014
rhumerus -50.7979 13.1851 -99.8957
rradius 51.3245
rwrist 1.9303
rhand 5.86067 -63.0194
rfingers 7.12502
rthumb -148.809 1350.38
lclavicle 2.8625e-014 3.02153e-014
lhumerus -35.6701 15.6382 59.8362
lradius 40.5564
lwrist -6.71651
lhand -13.5274 -36.2457
lfingers 7.12502
lthumb 12.5848 -6.64476
rfemur -12.0169 8.23646 23.1811
rtibia 44.9453
rfoot -6.94562 -6.13219
rtoes -27.1528
lfemur -42.4479 -3.10308 -7.76855
ltibia 41.9332
lfoot -13.9722 10.1215
ltoes -25.3141
2857
root 10.6407 15.3837 -4.29577 -343.919 -21.5872 -10.6551
lowerback 21.7082 2.92469 1.07658
upperback -1.73312 4.0905 -0.473536
thorax -14.1023 1.74479 -2.50971
lowerneck -9.67932 3.15384 -0.579718
upperneck -2.06778 4.21031 4.15297
head 0.877977 2.18378 1.54968
rclavicle 2.54444e-014 9.54166e-015
rhumerus -50.9453 13.4841 -99.9149
rradius 51.5185
rwrist 1.9325
rhand 5.19964 -62.4734
rfingers 7.12502
rthumb -149.44 1530.04
lclavicle 2.54444e-014 9.54166e-015
lhumerus -34.4943 15.7857 60.1812
lradius 40.8036
lwrist -6.07895
lhand -14.4994 -34.6887
lfingers 7.12502
lthumb 11.6476 -5.03247
rfemur -12.6226 8.00469 23.2106
rtibia 45.8552
rfoot -6.21254 -6.29116
rtoes -26.5949
lfemur -42.1468 -3.09391 -7.83511
ltibia 41.5399
lfoot -14.0975 10.0381
ltoes -23.8613
2858
root 10.6487 15.4154 -4.20651 -343.823 -21.4405 -10.7729
lowerback 21.8898 2.72311 0.7889
upperback -1.71471 3.76662 -0.337564
thorax -14.229 1.62317 -2.0959
lowerneck -10.189 3.34077 -1.052
upperneck -1.59758 4.48475 4.70847
head 1.09101 2.34488 1.84338
rclavicle -2.22639e-014 -2.38542e-015
rhumerus -50.9493 14.0403 -99.9128
rradius 51.6734
rwrist 1.86031
rhand 4.54224 -61.9194
rfingers 7.12502
rthumb -150.067 1530.48
lclavicle -2.22639e-014 -2.38542e-015
lhumerus -33.6415 16.0945 60.505
lradius 41.4633
lwrist -5.18894
lhand -15.5313 -33.2336
lfingers 7.12502
lthumb 10.6523 -3.52362
rfemur -13.091 7.69771 23.2877
rtibia 46.7538
rfoot -5.63938 -6.40522
rtoes -25.4726
lfemur -41.714 -3.11866 -7.926
ltibia 41.16
lfoot -14.0356 10.1323
ltoes -26.8669
2859
root 10.6593 15.4493 -4.11928 -343.639 -21.3077 -11.0449
lowerback 21.9524 2.56013 0.68766
upperback -1.66155 3.53709 -0.234696
thorax -14.2236 1.53231 -1.84666
lowerneck -10.6132 3.48087 -1.42715
upperneck -1.22534 4.68985 5.28658
head 1.26112 2.47061 2.12644
rclavicle -3.33958e-014 -6.36111e-015
rhumerus -50.6976 14.3657 -99.8236
rradius 51.6928
rwrist 2.08966
rhand 4.76712 -61.6618
rfingers 7.12502
rthumb -149.852 1530.78
lclavicle -3.33958e-014 -6.36111e-015
lhumerus -32.621 16.2177 60.8421
lradius 42.0169
lwrist -4.11396
lhand -15.6968 -34.8656
lfingers 7.12502
lthumb 10.4927 -5.1475
rfemur -13.6287 7.39719 23.5018
rtibia 47.6177
rfoot -5.02919 -6.50586
rtoes -24.0956
lfemur -41.309 -3.25132 -7.80973
ltibia 40.7996
lfoot -14.0182 10.3436
ltoes -28.8463
2860
root 10.669 15.4897 -4.03612 -343.372 -21.1276 -11.2675
lowerback 21.8658 2.42111 0.566408
upperback -1.60285 3.32478 -0.192785
thorax -14.1197 1.45011 -1.65283
lowerneck -10.7351 3.55532 -1.4906
upperneck -1.20434 4.78867 5.64356
head 1.27772 2.53026 2.26322
rclavicle 7.95139e-016 6.36111e-015
rhumerus -50.4169 14.6069 -99.8052
rradius 51.7872
rwrist 2.0406
rhand 5.21005 -61.8389
rfingers 7.12502
rthumb -149.43 1530.68
lclavicle 7.95139e-016 6.36111e-015
lhumerus -31.2047 16.3165 61.1719
lradius 42.1544
lwrist -3.02547
lhand -15.5016 -36.6405
lfingers 7.12502
lthumb 10.681 -6.93196
rfemur -14.247 7.03977 23.6858
rtibia 48.4306
rfoot -4.45356 -6.56825
rtoes -22.5186
lfemur -41.0335 -3.42905 -7.70028
ltibia 40.4402
lfoot -14.0941 10.4203
ltoes -28.0973
2861
root 10.6754 15.5279 -3.95188 -343.246 -20.9714 -11.4306
lowerback 21.8679 2.34663 0.44281
upperback -1.66284 3.20374 -0.128937
thorax -14.2059 1.40662 -1.4721
lowerneck -10.2673 3.5932 -1.65936
upperneck -1.35937 4.86161 6.0042
head 1.13214 2.56673 2.39642
rclavicle -2.3059e-014 1.59028e-014
rhumerus -50.6034 14.7109 -99.751
rradius 52.0593
rwrist 1.70682
rhand 4.9906 -62.0512
rfingers 7.12502
rthumb -149.639 1530.43
lclavicle -2.3059e-014 1.59028e-014
lhumerus -29.9121 16.0538 61.5916
lradius 42.2288
lwrist -1.84058
lhand -15.2772 -36.6227
lfingers 7.12502
lthumb 10.8974 -6.92548
rfemur -14.7035 6.65804 23.8644
rtibia 49.2262
rfoot -4.09398 -6.91629
rtoes -21.8296
lfemur -40.6078 -3.57429 -7.67971
ltibia 40.0695
lfoot -14.0763 10.4033
ltoes -27.5184
2862
root 10.682 15.5571 -3.86733 -343.183 -20.8862 -11.5933
lowerback 21.9708 2.2729 0.272867
upperback -1.66048 3.06747 -0.0813253
thorax -14.2781 1.35898 -1.28047
lowerneck -10.3073 3.66657 -1.65035
upperneck -1.25059 4.94887 6.26519
head 1.16575 2.61803 2.48837
rclavicle -3.4191e-014 1.11319e-014
rhumerus -50.5901 14.8888 -99.6978
rradius 52.294
rwrist 1.63919
rhand 4.53755 -61.4253
rfingers 7.12502
rthumb -150.071 1530.97
lclavicle -3.4191e-014 1.11319e-014
lhumerus -28.551 15.7197 61.9507
lradius 42.3209
lwrist -0.535616
lhand -15.0436 -36.3023
lfingers 7.12502
lthumb 11.1227 -6.61706
rfemur -15.1372 6.30136 24.0451
rtibia 50.0033
rfoot -3.92489 -7.47635
rtoes -22.3273
lfemur -40.1182 -3.76398 -7.6481
ltibia 39.7076
lfoot -14.1166 10.3634
ltoes -24.6326
2863
root 10.6898 15.5816 -3.793 -343.059 -20.6659 -11.6493
lowerback 22.0752 2.13188 0.0251575
upperback -1.64223 2.81534 -0.0691471
thorax -14.3346 1.26361 -1.04462
lowerneck -10.4197 3.76823 -1.37247
upperneck -1.21735 5.0485 6.31166
head 1.1966 2.67029 2.46203
rclavicle -9.14409e-015 3.18055e-014
rhumerus -50.4175 15.1657 -99.7239
rradius 52.5507
rwrist 1.57812
rhand 4.70171 -60.9271
rfingers 7.12502
rthumb -149.915 1531.5
lclavicle -9.14409e-015 3.18055e-014
lhumerus -27.2612 15.5676 62.2002
lradius 42.4447
lwrist 0.577595
lhand -14.8283 -36.1205
lfingers 7.12502
lthumb 11.3303 -6.44658
rfemur -15.6935 5.79234 24.1398
rtibia 50.7956
rfoot -3.93472 -7.82104
rtoes -22.5292
lfemur -39.8266 -4.04044 -7.68571
ltibia 39.3696
lfoot -14.258 10.2898
ltoes -20.5279
2864
root 10.6979 15.6087 -3.7097 -343.042 -20.4592 -11.8412
lowerback 22.2181 2.00355 0.0088622
upperback -1.66112 2.64299 -0.0536802
thorax -14.4436 1.18596 -0.965554
lowerneck -10.297 3.85412 -1.34437
upperneck -1.07502 5.14816 6.6259
head 1.21111 2.72738 2.56442
rclavicle -3.53837e-014 2.22639e-014
rhumerus -50.4572 15.2483 -99.7622
rradius 52.8321
rwrist 1.38841
rhand 5.03094 -60.9966
rfingers 7.12502
rthumb -149.601 1531.49
lclavicle -3.53837e-014 2.22639e-014
lhumerus -26.0435 15.4254 62.4126
lradius 42.3469
lwrist 1.26168
lhand -14.4836 -35.92
lfingers 7.12502
lthumb 11.6628 -6.26461
rfemur -16.0021 5.29977 24.3554
rtibia 51.5415
rfoot -4.00753 -7.93044
rtoes -22.3696
lfemur -39.3366 -4.36706 -7.617
ltibia 39.0527
lfoot -14.3032 10.4689
ltoes -19.14
2865
root 10.7067 15.6345 -3.63194 -342.959 -20.1587 -12.0676
lowerback 22.3009 1.84468 0.116694
upperback -1.69994 2.46685 -0.0215152
thorax -14.5363 1.09843 -0.934509
lowerneck -10.222 3.87974 -1.40367
upperneck -0.845157 5.17195 6.93864
head 1.26401 2.749 2.68371
rclavicle 3.97569e-014 -6.36111e-015
rhumerus -50.4954 15.2593 -99.7654
rradius 53.0223
rwrist 1.09669
rhand 4.62009 -60.5906
rfingers 7.12502
rthumb -149.992 1531.82
lclavicle 3.97569e-014 -6.36111e-015
lhumerus -24.7241 15.2618 62.6703
lradius 42.1365
lwrist 1.75653
lhand -14.0408 -35.4875
lfingers 7.12502
lthumb 12.0898 -5.85679
rfemur -16.4472 4.79764 24.655
rtibia 52.2659
rfoot -4.12864 -8.07144
rtoes -21.0433
lfemur -38.9877 -4.82584 -7.43911
ltibia 38.7253
lfoot -14.1063 10.8161
ltoes -19.1248
2866
root 10.7146 15.659 -3.55788 -342.799 -19.9544 -12.1968
lowerback 22.2501 1.69246 0.00796455
upperback -1.6494 2.23756 -0.00266835
thorax -14.4542 1.00563 -0.769747
lowerneck -10.3157 3.9501 -1.32958
upperneck -0.848846 5.25233 7.13668
head 1.27294 2.79504 2.74278
rclavicle 1.15295e-014 9.54166e-015
rhumerus -50.2919 15.5404 -99.8167
rradius 53.1735
rwrist 0.739166
rhand 3.88964 -60.1372
rfingers 7.12502
rthumb -150.69 1532.15
lclavicle 1.15295e-014 9.54166e-015
lhumerus -23.3335 15.25 62.9112
lradius 42.0345
lwrist 2.31337
lhand -13.5527 -35.1757
lfingers 7.12502
lthumb 12.5604 -5.57325
rfemur -17.0672 4.35507 24.8371
rtibia 52.979
rfoot -4.14907 -8.20652
rtoes -20.0005
lfemur -38.716 -5.26386 -7.34568
ltibia 38.3863
lfoot -13.9681 11.1635
ltoes -18.5204
2867
root 10.7225 15.6843 -3.47889 -342.662 -19.8466 -12.3168
lowerback 22.1142 1.59768 -0.0265572
upperback -1.64467 2.10112 -0.0150805
thorax -14.371 0.947334 -0.713458
lowerneck -10.1091 4.02985 -1.39501
upperneck -0.969776 5.37058 7.42205
head 1.18358 2.85474 2.84403
rclavicle 4.53229e-014 4.77083e-015
rhumerus -50.1735 15.6639 -99.7992
rradius 53.393
rwrist 0.682575
rhand 4.15193 -60.377
rfingers 7.12502
rthumb -150.439 1531.96
lclavicle 4.53229e-014 4.77083e-015
lhumerus -22.1102 15.0328 63.1604
lradius 41.8203
lwrist 2.85791
lhand -13.1414 -35.3636
lfingers 7.12502
lthumb 12.9569 -5.78586
rfemur -17.5971 3.96446 24.9757
rtibia 53.6687
rfoot -4.07964 -8.29326
rtoes -20.3709
lfemur -38.3266 -5.5839 -7.33235
ltibia 38.0479
lfoot -13.9968 11.4987
ltoes -19.9289
2868
root 10.7295 15.704 -3.40011 -342.549 -19.7817 -12.4074
lowerback 22.0097 1.4954 -0.144771
upperback -1.66421 1.93504 -0.0110222
thorax -14.3386 0.882435 -0.582508
lowerneck -10.0156 4.1511 -1.38614
upperneck -0.87745 5.52474 7.57359
head 1.18605 2.93514 2.89764
rclavicle 2.18663e-014 -1.43125e-014
rhumerus -50.065 15.7812 -99.7981
rradius 53.6333
rwrist 0.763337
rhand 4.78973 -60.6035
rfingers 7.12502
rthumb -149.831 1531.84
lclavicle 2.18663e-014 -1.43125e-014
lhumerus -21.0645 14.9696 63.3127
lradius 41.5338
lwrist 2.98199
lhand -12.8077 -35.3156
lfingers 7.12502
lthumb 13.2786 -5.75863
rfemur -18.1146 3.62923 25.0815
rtibia 54.35
rfoot -4.0715 -8.34301
rtoes -21.1999
lfemur -37.9274 -5.8088 -7.37789
ltibia 37.733
lfoot -14.0453 11.8413
ltoes -23.5226
